<svg xmlns="http://www.w3.org/2000/svg" width="920" height="560" viewBox="0 0 920 560">
<rect width="100%" height="100%" fill="white"/>
<text x="460.0" y="30" text-anchor="middle" font-family="Helvetica, Arial, sans-serif" font-size="18" font-weight="600">GP2026 Row Proxy: Horizon Function</text>
<rect x="82.0" y="60.0" width="623.0" height="426.0" fill="#fafafa" stroke="#222" stroke-width="1"/>
<line x1="82.0" y1="60.0" x2="82.0" y2="486.0" stroke="#ddd" stroke-width="1"/>
<text x="82.0" y="510.0" text-anchor="middle" font-family="Helvetica, Arial, sans-serif" font-size="12">-7.22</text>
<line x1="237.75" y1="60.0" x2="237.75" y2="486.0" stroke="#ddd" stroke-width="1"/>
<text x="237.75" y="510.0" text-anchor="middle" font-family="Helvetica, Arial, sans-serif" font-size="12">32.5</text>
<line x1="393.5" y1="60.0" x2="393.5" y2="486.0" stroke="#ddd" stroke-width="1"/>
<text x="393.5" y="510.0" text-anchor="middle" font-family="Helvetica, Arial, sans-serif" font-size="12">72.2</text>
<line x1="549.25" y1="60.0" x2="549.25" y2="486.0" stroke="#ddd" stroke-width="1"/>
<text x="549.25" y="510.0" text-anchor="middle" font-family="Helvetica, Arial, sans-serif" font-size="12">112</text>
<line x1="705.0" y1="60.0" x2="705.0" y2="486.0" stroke="#ddd" stroke-width="1"/>
<text x="705.0" y="510.0" text-anchor="middle" font-family="Helvetica, Arial, sans-serif" font-size="12">152</text>
<line x1="82.0" y1="483.0296176690854" x2="705.0" y2="483.0296176690854" stroke="#ddd" stroke-width="1"/>
<text x="72.0" y="487.0296176690854" text-anchor="end" font-family="Helvetica, Arial, sans-serif" font-size="12">1.0e-05</text>
<line x1="82.0" y1="378.82870260976455" x2="705.0" y2="378.82870260976455" stroke="#ddd" stroke-width="1"/>
<text x="72.0" y="382.82870260976455" text-anchor="end" font-family="Helvetica, Arial, sans-serif" font-size="12">1.0e-04</text>
<line x1="82.0" y1="274.6277875504437" x2="705.0" y2="274.6277875504437" stroke="#ddd" stroke-width="1"/>
<text x="72.0" y="278.6277875504437" text-anchor="end" font-family="Helvetica, Arial, sans-serif" font-size="12">1.0e-03</text>
<line x1="82.0" y1="170.42687249112282" x2="705.0" y2="170.42687249112282" stroke="#ddd" stroke-width="1"/>
<text x="72.0" y="174.42687249112282" text-anchor="end" font-family="Helvetica, Arial, sans-serif" font-size="12">0.010</text>
<line x1="82.0" y1="66.22595743180196" x2="705.0" y2="66.22595743180196" stroke="#ddd" stroke-width="1"/>
<text x="72.0" y="70.22595743180196" text-anchor="end" font-family="Helvetica, Arial, sans-serif" font-size="12">0.100</text>
<polyline points="110.318,69.571 110.318,101.951 110.318,126.001 110.318,141.775 110.318,151.111 110.318,156.318 173.073,179.427 178.094,207.447 181.231,236.647 183.114,266.166 184.055,295.103 184.997,322.363 185.624,347.135 186.252,367.959 192.841,384.784 201.627,400.695 210.726,415.467 219.198,428.641 227.356,439.793 236.142,448.919 245.869,456.120 255.282,461.709 265.951,465.998 275.678,469.154 285.718,471.409 296.387,473.020 309.565,474.217 320.861,475.091 329.647,475.718 344.080,476.161 357.887,476.509 366.672,476.767 380.165,476.953 403.698,477.094 415.621,477.216 428.486,477.309 437.899,477.379 457.981,477.440 475.552,477.489 502.537,477.528 511.009,477.570 535.169,477.596 551.799,477.634 567.174,477.658 600.748,477.674 600.748,477.699 644.049,477.719 655.659,477.749" fill="none" stroke="#1f77b4" stroke-width="2.2" stroke-linejoin="round" stroke-linecap="round"/>
<polyline points="110.318,68.773 110.318,100.663 110.318,124.003 110.318,139.075 110.318,147.923 110.318,152.888 172.759,176.839 177.780,203.866 180.918,231.915 182.800,260.244 184.055,288.095 184.683,314.540 185.310,339.001 185.938,360.167 189.703,377.267 198.803,392.978 207.275,407.780 215.747,421.230 223.591,432.879 232.063,442.650 240.849,450.513 250.576,456.686 260.303,461.536 270.030,465.207 278.815,467.891 288.856,469.810 301.093,471.225 311.448,472.285 324.313,473.054 333.098,473.610 347.846,474.015 360.083,474.335 374.203,474.568 385.499,474.743 403.698,474.884 415.621,474.997 428.486,475.085 443.233,475.149 467.394,475.209 475.552,475.259 502.537,475.302 511.009,475.341 535.169,475.370 551.799,475.405 567.174,475.432 600.748,475.453 621.144,475.474 644.049,475.501 655.659,475.530 676.682,475.558 676.682,475.561" fill="none" stroke="#d62728" stroke-width="2.2" stroke-linejoin="round" stroke-linecap="round"/>
<polyline points="110.318,68.251 110.318,99.813 110.318,122.666 110.318,137.238 110.318,145.719 110.318,150.482 172.759,175.063 177.466,201.405 180.918,228.650 182.800,256.133 183.742,283.176 184.683,308.973 185.310,333.091 185.938,354.350 187.507,371.792 196.292,387.316 205.078,402.068 213.236,415.647 221.081,427.590 229.239,437.791 237.397,446.130 246.183,452.748 256.851,458.004 265.951,462.071 275.050,465.098 284.463,467.287 295.445,468.895 307.055,470.102 317.723,470.994 329.647,471.643 340.943,472.113 355.063,472.474 366.672,472.756 376.399,472.962 390.519,473.120 406.835,473.247 418.445,473.349 433.820,473.429 457.981,473.492 467.394,473.550 485.593,473.597 511.009,473.637 520.736,473.672 551.799,473.706 567.174,473.737 567.174,473.767 600.748,473.790 621.144,473.811 655.659,473.840 676.682,473.867 676.682,473.894" fill="none" stroke="#2ca02c" stroke-width="2.2" stroke-linejoin="round" stroke-linecap="round"/>
<text x="393.5" y="540" text-anchor="middle" font-family="Helvetica, Arial, sans-serif" font-size="14">V at row minimum r_V</text>
<text x="20" y="273.0" text-anchor="middle" transform="rotate(-90 20 273.0)" font-family="Helvetica, Arial, sans-serif" font-size="14">H</text>
<line x1="729.0" y1="80.0" x2="753.0" y2="80.0" stroke="#1f77b4" stroke-width="3"/>
<text x="761.0" y="84.0" font-family="Helvetica, Arial, sans-serif" font-size="13">Q0=1.0</text>
<line x1="729.0" y1="104.0" x2="753.0" y2="104.0" stroke="#d62728" stroke-width="3"/>
<text x="761.0" y="108.0" font-family="Helvetica, Arial, sans-serif" font-size="13">Q0=1.002</text>
<line x1="729.0" y1="128.0" x2="753.0" y2="128.0" stroke="#2ca02c" stroke-width="3"/>
<text x="761.0" y="132.0" font-family="Helvetica, Arial, sans-serif" font-size="13">Q0=1.0033218</text>
</svg>
