<svg xmlns="http://www.w3.org/2000/svg" width="920" height="560" viewBox="0 0 920 560">
<rect width="100%" height="100%" fill="white"/>
<text x="460.0" y="30" text-anchor="middle" font-family="Helvetica, Arial, sans-serif" font-size="18" font-weight="600">GP2026 Row Proxy: Minimum Outgoing Expansion</text>
<rect x="82.0" y="60.0" width="623.0" height="426.0" fill="#fafafa" stroke="#222" stroke-width="1"/>
<line x1="82.0" y1="60.0" x2="82.0" y2="486.0" stroke="#ddd" stroke-width="1"/>
<text x="82.0" y="510.0" text-anchor="middle" font-family="Helvetica, Arial, sans-serif" font-size="12">-7.22</text>
<line x1="237.75" y1="60.0" x2="237.75" y2="486.0" stroke="#ddd" stroke-width="1"/>
<text x="237.75" y="510.0" text-anchor="middle" font-family="Helvetica, Arial, sans-serif" font-size="12">32.5</text>
<line x1="393.5" y1="60.0" x2="393.5" y2="486.0" stroke="#ddd" stroke-width="1"/>
<text x="393.5" y="510.0" text-anchor="middle" font-family="Helvetica, Arial, sans-serif" font-size="12">72.2</text>
<line x1="549.25" y1="60.0" x2="549.25" y2="486.0" stroke="#ddd" stroke-width="1"/>
<text x="549.25" y="510.0" text-anchor="middle" font-family="Helvetica, Arial, sans-serif" font-size="12">112</text>
<line x1="705.0" y1="60.0" x2="705.0" y2="486.0" stroke="#ddd" stroke-width="1"/>
<text x="705.0" y="510.0" text-anchor="middle" font-family="Helvetica, Arial, sans-serif" font-size="12">152</text>
<line x1="82.0" y1="451.61144546803456" x2="705.0" y2="451.61144546803456" stroke="#ddd" stroke-width="1"/>
<text x="72.0" y="455.61144546803456" text-anchor="end" font-family="Helvetica, Arial, sans-serif" font-size="12">1.0e-05</text>
<line x1="82.0" y1="347.1067745052427" x2="705.0" y2="347.1067745052427" stroke="#ddd" stroke-width="1"/>
<text x="72.0" y="351.1067745052427" text-anchor="end" font-family="Helvetica, Arial, sans-serif" font-size="12">1.0e-04</text>
<line x1="82.0" y1="242.60210354245083" x2="705.0" y2="242.60210354245083" stroke="#ddd" stroke-width="1"/>
<text x="72.0" y="246.60210354245083" text-anchor="end" font-family="Helvetica, Arial, sans-serif" font-size="12">1.0e-03</text>
<line x1="82.0" y1="138.09743257965897" x2="705.0" y2="138.09743257965897" stroke="#ddd" stroke-width="1"/>
<text x="72.0" y="142.09743257965897" text-anchor="end" font-family="Helvetica, Arial, sans-serif" font-size="12">0.010</text>
<polyline points="110.318,68.406 110.318,100.881 110.318,125.001 110.318,140.821 110.318,150.184 110.318,155.406 173.073,177.604 178.094,205.783 181.231,235.125 183.114,264.762 184.055,293.800 184.997,321.155 185.624,346.011 186.252,366.906 192.841,383.879 201.627,399.938 210.726,414.833 219.198,428.104 227.356,439.334 236.142,448.526 245.869,455.784 255.282,461.417 265.951,465.746 275.678,468.931 285.718,471.210 296.387,472.843 309.565,474.060 320.861,474.950 329.647,475.587 344.080,476.044 357.887,476.402 366.672,476.666 380.165,476.861 403.698,477.014 415.621,477.142 428.486,477.241 437.899,477.314 457.981,477.380 475.552,477.435 502.537,477.479 511.009,477.523 535.169,477.555 551.799,477.593 567.174,477.620 600.748,477.642 600.748,477.666 644.049,477.692 655.659,477.725" fill="none" stroke="#1f77b4" stroke-width="2.2" stroke-linejoin="round" stroke-linecap="round"/>
<polyline points="110.318,68.327 110.318,100.311 110.318,123.718 110.318,138.834 110.318,147.708 110.318,152.688 172.759,175.021 177.780,202.199 180.918,230.385 182.800,258.828 184.055,286.781 184.683,313.314 185.310,337.857 185.938,359.095 189.703,376.303 198.803,392.174 207.275,407.100 215.747,420.652 223.591,432.382 232.063,442.223 240.849,450.144 250.576,456.367 260.303,461.258 270.030,464.962 278.815,467.672 288.856,469.612 301.093,471.049 311.448,472.125 324.313,472.910 333.098,473.476 347.846,473.894 360.083,474.223 374.203,474.466 385.499,474.648 403.698,474.797 415.621,474.916 428.486,475.009 443.233,475.079 467.394,475.146 475.552,475.199 502.537,475.247 511.009,475.289 535.169,475.322 551.799,475.360 567.174,475.390 600.748,475.414 621.144,475.439 644.049,475.469 655.659,475.497 676.682,475.527 676.682,475.531" fill="none" stroke="#d62728" stroke-width="2.2" stroke-linejoin="round" stroke-linecap="round"/>
<polyline points="110.318,68.275 110.318,99.929 110.318,122.848 110.318,137.463 110.318,145.969 110.318,150.746 172.759,173.253 177.466,199.734 180.918,227.118 182.800,254.712 183.742,281.850 184.683,307.738 185.310,331.937 185.938,353.268 187.507,370.785 196.292,386.472 205.078,401.355 213.236,415.038 221.081,427.065 229.239,437.338 237.397,445.736 246.183,452.405 256.851,457.707 265.951,461.809 275.050,464.864 284.463,467.076 295.445,468.705 307.055,469.930 317.723,470.837 329.647,471.500 340.943,471.982 355.063,472.354 366.672,472.645 376.399,472.857 390.519,473.023 406.835,473.157 418.445,473.264 433.820,473.351 457.981,473.421 467.394,473.482 485.593,473.534 511.009,473.580 520.736,473.617 551.799,473.656 567.174,473.690 567.174,473.717 600.748,473.745 621.144,473.771 655.659,473.804 676.682,473.832 676.682,473.856" fill="none" stroke="#2ca02c" stroke-width="2.2" stroke-linejoin="round" stroke-linecap="round"/>
<text x="393.5" y="540" text-anchor="middle" font-family="Helvetica, Arial, sans-serif" font-size="14">V at row minimum r_V</text>
<text x="20" y="273.0" text-anchor="middle" transform="rotate(-90 20 273.0)" font-family="Helvetica, Arial, sans-serif" font-size="14">min r_V</text>
<line x1="729.0" y1="80.0" x2="753.0" y2="80.0" stroke="#1f77b4" stroke-width="3"/>
<text x="761.0" y="84.0" font-family="Helvetica, Arial, sans-serif" font-size="13">Q0=1.0</text>
<line x1="729.0" y1="104.0" x2="753.0" y2="104.0" stroke="#d62728" stroke-width="3"/>
<text x="761.0" y="108.0" font-family="Helvetica, Arial, sans-serif" font-size="13">Q0=1.002</text>
<line x1="729.0" y1="128.0" x2="753.0" y2="128.0" stroke="#2ca02c" stroke-width="3"/>
<text x="761.0" y="132.0" font-family="Helvetica, Arial, sans-serif" font-size="13">Q0=1.0033218</text>
</svg>
