<svg xmlns="http://www.w3.org/2000/svg" width="920" height="560" viewBox="0 0 920 560">
<rect width="100%" height="100%" fill="white"/>
<text x="460.0" y="30" text-anchor="middle" font-family="Helvetica, Arial, sans-serif" font-size="18" font-weight="600">GP2026 Row Proxy: Distance to r_+</text>
<rect x="82.0" y="60.0" width="623.0" height="426.0" fill="#fafafa" stroke="#222" stroke-width="1"/>
<line x1="82.0" y1="60.0" x2="82.0" y2="486.0" stroke="#ddd" stroke-width="1"/>
<text x="82.0" y="510.0" text-anchor="middle" font-family="Helvetica, Arial, sans-serif" font-size="12">-7.22</text>
<line x1="237.75" y1="60.0" x2="237.75" y2="486.0" stroke="#ddd" stroke-width="1"/>
<text x="237.75" y="510.0" text-anchor="middle" font-family="Helvetica, Arial, sans-serif" font-size="12">32.5</text>
<line x1="393.5" y1="60.0" x2="393.5" y2="486.0" stroke="#ddd" stroke-width="1"/>
<text x="393.5" y="510.0" text-anchor="middle" font-family="Helvetica, Arial, sans-serif" font-size="12">72.2</text>
<line x1="549.25" y1="60.0" x2="549.25" y2="486.0" stroke="#ddd" stroke-width="1"/>
<text x="549.25" y="510.0" text-anchor="middle" font-family="Helvetica, Arial, sans-serif" font-size="12">112</text>
<line x1="705.0" y1="60.0" x2="705.0" y2="486.0" stroke="#ddd" stroke-width="1"/>
<text x="705.0" y="510.0" text-anchor="middle" font-family="Helvetica, Arial, sans-serif" font-size="12">152</text>
<line x1="82.0" y1="427.63313297270724" x2="705.0" y2="427.63313297270724" stroke="#ddd" stroke-width="1"/>
<text x="72.0" y="431.63313297270724" text-anchor="end" font-family="Helvetica, Arial, sans-serif" font-size="12">1.0e-04</text>
<line x1="82.0" y1="289.6047990863617" x2="705.0" y2="289.6047990863617" stroke="#ddd" stroke-width="1"/>
<text x="72.0" y="293.6047990863617" text-anchor="end" font-family="Helvetica, Arial, sans-serif" font-size="12">1.0e-03</text>
<line x1="82.0" y1="151.57646520001612" x2="705.0" y2="151.57646520001612" stroke="#ddd" stroke-width="1"/>
<text x="72.0" y="155.57646520001612" text-anchor="end" font-family="Helvetica, Arial, sans-serif" font-size="12">0.010</text>
<polyline points="173.073,80.807 178.094,117.628 181.231,156.007 183.114,194.901 184.055,233.104 184.997,269.148 185.624,301.927 186.252,329.494 192.841,351.786 201.627,372.870 210.726,392.445 219.198,409.900 227.356,424.676 236.142,436.768 245.869,446.310 255.282,453.716 265.951,459.402 275.678,463.585 285.718,466.575 296.387,468.713 309.565,470.301 320.861,471.463 329.647,472.296 344.080,472.886 357.887,473.350 366.672,473.694 380.165,473.944 403.698,474.138 415.621,474.302 428.486,474.429 437.899,474.523 457.981,474.610 475.552,474.679 502.537,474.738 511.009,474.796 535.169,474.837 551.799,474.892 567.174,474.927 600.748,474.957 600.748,474.990 644.049,475.028 655.659,475.071" fill="none" stroke="#1f77b4" stroke-width="2.2" stroke-linejoin="round" stroke-linecap="round"/>
<polyline points="172.759,74.999 177.780,110.444 180.918,147.222 182.800,184.482 184.055,221.213 184.683,256.149 185.310,288.502 185.938,316.514 189.703,339.162 198.803,359.985 207.275,379.599 215.747,397.421 223.591,412.856 232.063,425.803 240.849,436.222 250.576,444.403 260.303,450.831 270.030,455.697 278.815,459.256 288.856,461.800 301.093,463.679 311.448,465.087 324.313,466.109 333.098,466.849 347.846,467.390 360.083,467.817 374.203,468.130 385.499,468.366 403.698,468.557 415.621,468.711 428.486,468.832 443.233,468.921 467.394,469.008 475.552,469.076 502.537,469.142 511.009,469.196 535.169,469.242 551.799,469.293 567.174,469.334 600.748,469.371 621.144,469.405 644.049,469.448 655.659,469.490 676.682,469.533 676.682,469.537" fill="none" stroke="#d62728" stroke-width="2.2" stroke-linejoin="round" stroke-linecap="round"/>
<polyline points="172.759,70.929 177.466,105.363 180.918,141.042 182.800,177.125 183.742,212.741 184.683,246.803 185.310,278.687 185.938,306.814 187.507,329.903 196.292,350.480 205.078,370.030 213.236,388.023 221.081,403.848 229.239,417.365 237.397,428.414 246.183,437.186 256.851,444.152 265.951,449.544 275.050,453.556 284.463,456.459 295.445,458.594 307.055,460.196 317.723,461.381 329.647,462.245 340.943,462.873 355.063,463.356 366.672,463.733 376.399,464.009 390.519,464.223 406.835,464.397 418.445,464.536 433.820,464.647 457.981,464.738 467.394,464.818 485.593,464.887 511.009,464.948 520.736,464.999 551.799,465.054 567.174,465.100 567.174,465.140 600.748,465.181 621.144,465.216 655.659,465.266 676.682,465.309 676.682,465.345" fill="none" stroke="#2ca02c" stroke-width="2.2" stroke-linejoin="round" stroke-linecap="round"/>
<text x="393.5" y="540" text-anchor="middle" font-family="Helvetica, Arial, sans-serif" font-size="14">V at row minimum r_V</text>
<text x="20" y="273.0" text-anchor="middle" transform="rotate(-90 20 273.0)" font-family="Helvetica, Arial, sans-serif" font-size="14">r - r_+</text>
<line x1="729.0" y1="80.0" x2="753.0" y2="80.0" stroke="#1f77b4" stroke-width="3"/>
<text x="761.0" y="84.0" font-family="Helvetica, Arial, sans-serif" font-size="13">Q0=1.0</text>
<line x1="729.0" y1="104.0" x2="753.0" y2="104.0" stroke="#d62728" stroke-width="3"/>
<text x="761.0" y="108.0" font-family="Helvetica, Arial, sans-serif" font-size="13">Q0=1.002</text>
<line x1="729.0" y1="128.0" x2="753.0" y2="128.0" stroke="#2ca02c" stroke-width="3"/>
<text x="761.0" y="132.0" font-family="Helvetica, Arial, sans-serif" font-size="13">Q0=1.0033218</text>
</svg>
