<svg xmlns="http://www.w3.org/2000/svg" width="920" height="560" viewBox="0 0 920 560">
<rect width="100%" height="100%" fill="white"/>
<text x="460.0" y="30" text-anchor="middle" font-family="Helvetica, Arial, sans-serif" font-size="18" font-weight="600">GP2026 Evolved Charge Constraint Convergence</text>
<rect x="82.0" y="60.0" width="623.0" height="426.0" fill="#fafafa" stroke="#222" stroke-width="1"/>
<line x1="128.4739752928854" y1="60.0" x2="128.4739752928854" y2="486.0" stroke="#ddd" stroke-width="1"/>
<text x="128.4739752928854" y="510.0" text-anchor="middle" font-family="Helvetica, Arial, sans-serif" font-size="12">0.010</text>
<line x1="82.0" y1="397.87403940534847" x2="705.0" y2="397.87403940534847" stroke="#ddd" stroke-width="1"/>
<text x="72.0" y="401.87403940534847" text-anchor="end" font-family="Helvetica, Arial, sans-serif" font-size="12">1.0e-08</text>
<line x1="82.0" y1="250.77321047388583" x2="705.0" y2="250.77321047388583" stroke="#ddd" stroke-width="1"/>
<text x="72.0" y="254.77321047388583" text-anchor="end" font-family="Helvetica, Arial, sans-serif" font-size="12">1.0e-07</text>
<line x1="82.0" y1="103.67238154242312" x2="705.0" y2="103.67238154242312" stroke="#ddd" stroke-width="1"/>
<text x="72.0" y="107.67238154242312" text-anchor="end" font-family="Helvetica, Arial, sans-serif" font-size="12">1.0e-06</text>
<polyline points="658.526,98.228 481.842,185.981 305.158,274.145 128.474,362.506" fill="none" stroke="#1f77b4" stroke-width="2.2" stroke-linejoin="round" stroke-linecap="round"/>
<polyline points="658.526,71.648 481.842,160.193 305.158,248.752 128.474,337.315" fill="none" stroke="#d62728" stroke-width="2.2" stroke-linejoin="round" stroke-linecap="round"/>
<polyline points="658.526,212.155 481.842,298.702 305.158,386.280 128.474,474.352" fill="none" stroke="#2ca02c" stroke-width="2.2" stroke-linejoin="round" stroke-linecap="round"/>
<polyline points="658.526,71.648 481.842,160.211 305.158,248.775 128.474,337.338" fill="none" stroke="#17becf" stroke-width="2.2" stroke-linejoin="round" stroke-linecap="round"/>
<text x="393.5" y="540" text-anchor="middle" font-family="Helvetica, Arial, sans-serif" font-size="14">Delta V</text>
<text x="20" y="273.0" text-anchor="middle" transform="rotate(-90 20 273.0)" font-family="Helvetica, Arial, sans-serif" font-size="14">max residual</text>
<line x1="729.0" y1="80.0" x2="753.0" y2="80.0" stroke="#1f77b4" stroke-width="3"/>
<text x="761.0" y="84.0" font-family="Helvetica, Arial, sans-serif" font-size="13">Q_U residual</text>
<line x1="729.0" y1="104.0" x2="753.0" y2="104.0" stroke="#d62728" stroke-width="3"/>
<text x="761.0" y="108.0" font-family="Helvetica, Arial, sans-serif" font-size="13">Q_V residual</text>
<line x1="729.0" y1="128.0" x2="753.0" y2="128.0" stroke="#2ca02c" stroke-width="3"/>
<text x="761.0" y="132.0" font-family="Helvetica, Arial, sans-serif" font-size="13">integrated Q</text>
<line x1="729.0" y1="152.0" x2="753.0" y2="152.0" stroke="#17becf" stroke-width="3"/>
<text x="761.0" y="156.0" font-family="Helvetica, Arial, sans-serif" font-size="13">O(h^2)</text>
</svg>
