<svg xmlns="http://www.w3.org/2000/svg" width="920" height="560" viewBox="0 0 920 560">
<rect width="100%" height="100%" fill="white"/>
<text x="460.0" y="30" text-anchor="middle" font-family="Helvetica, Arial, sans-serif" font-size="18" font-weight="600">GP2026 Row Proxy: Throat Coordinate</text>
<rect x="82.0" y="60.0" width="623.0" height="426.0" fill="#fafafa" stroke="#222" stroke-width="1"/>
<line x1="82.0" y1="60.0" x2="82.0" y2="486.0" stroke="#ddd" stroke-width="1"/>
<text x="82.0" y="510.0" text-anchor="middle" font-family="Helvetica, Arial, sans-serif" font-size="12">-7.22</text>
<line x1="237.75" y1="60.0" x2="237.75" y2="486.0" stroke="#ddd" stroke-width="1"/>
<text x="237.75" y="510.0" text-anchor="middle" font-family="Helvetica, Arial, sans-serif" font-size="12">32.5</text>
<line x1="393.5" y1="60.0" x2="393.5" y2="486.0" stroke="#ddd" stroke-width="1"/>
<text x="393.5" y="510.0" text-anchor="middle" font-family="Helvetica, Arial, sans-serif" font-size="12">72.2</text>
<line x1="549.25" y1="60.0" x2="549.25" y2="486.0" stroke="#ddd" stroke-width="1"/>
<text x="549.25" y="510.0" text-anchor="middle" font-family="Helvetica, Arial, sans-serif" font-size="12">112</text>
<line x1="705.0" y1="60.0" x2="705.0" y2="486.0" stroke="#ddd" stroke-width="1"/>
<text x="705.0" y="510.0" text-anchor="middle" font-family="Helvetica, Arial, sans-serif" font-size="12">152</text>
<line x1="82.0" y1="486.0" x2="705.0" y2="486.0" stroke="#ddd" stroke-width="1"/>
<text x="72.0" y="490.0" text-anchor="end" font-family="Helvetica, Arial, sans-serif" font-size="12">0.753</text>
<line x1="82.0" y1="379.50000000000006" x2="705.0" y2="379.50000000000006" stroke="#ddd" stroke-width="1"/>
<text x="72.0" y="383.50000000000006" text-anchor="end" font-family="Helvetica, Arial, sans-serif" font-size="12">1.17</text>
<line x1="82.0" y1="273.00000000000006" x2="705.0" y2="273.00000000000006" stroke="#ddd" stroke-width="1"/>
<text x="72.0" y="277.00000000000006" text-anchor="end" font-family="Helvetica, Arial, sans-serif" font-size="12">1.59</text>
<line x1="82.0" y1="166.49999999999997" x2="705.0" y2="166.49999999999997" stroke="#ddd" stroke-width="1"/>
<text x="72.0" y="170.49999999999997" text-anchor="end" font-family="Helvetica, Arial, sans-serif" font-size="12">2</text>
<line x1="82.0" y1="60.0" x2="705.0" y2="60.0" stroke="#ddd" stroke-width="1"/>
<text x="72.0" y="64.0" text-anchor="end" font-family="Helvetica, Arial, sans-serif" font-size="12">2.42</text>
<polyline points="110.318,466.636 110.318,343.578 110.318,260.042 110.318,207.666 110.318,177.368 110.318,160.665 173.073,151.913 178.094,147.460 181.231,145.195 183.114,144.061 184.055,143.496 184.997,143.216 185.624,143.075 186.252,143.005 192.841,142.971 201.627,142.954 210.726,142.945 219.198,142.941 227.356,142.939 236.142,142.938 245.869,142.937 255.282,142.937 265.951,142.937 275.678,142.937 285.718,142.937 296.387,142.937 309.565,142.937 320.861,142.937 329.647,142.937 344.080,142.937 357.887,142.937 366.672,142.937 380.165,142.937 403.698,142.937 415.621,142.937 428.486,142.937 437.899,142.937 457.981,142.937 475.552,142.937 502.537,142.937 511.009,142.937 535.169,142.937 551.799,142.937 567.174,142.937 600.748,142.937 600.748,142.937 644.049,142.937 655.659,142.937" fill="none" stroke="#1f77b4" stroke-width="2.2" stroke-linejoin="round" stroke-linecap="round"/>
<polyline points="110.318,464.349 110.318,336.784 110.318,247.098 110.318,188.172 110.318,152.316 110.318,131.528 172.759,120.133 177.780,114.098 180.918,110.908 182.800,109.253 184.055,108.399 184.683,107.962 185.310,107.735 185.938,107.618 189.703,107.559 198.803,107.528 207.275,107.512 215.747,107.504 223.591,107.500 232.063,107.498 240.849,107.497 250.576,107.496 260.303,107.496 270.030,107.496 278.815,107.496 288.856,107.496 301.093,107.496 311.448,107.496 324.313,107.496 333.098,107.496 347.846,107.496 360.083,107.496 374.203,107.496 385.499,107.496 403.698,107.496 415.621,107.496 428.486,107.496 443.233,107.496 467.394,107.496 475.552,107.496 502.537,107.496 511.009,107.496 535.169,107.496 551.799,107.496 567.174,107.496 600.748,107.496 621.144,107.496 644.049,107.496 655.659,107.496 676.682,107.496 676.682,107.496" fill="none" stroke="#d62728" stroke-width="2.2" stroke-linejoin="round" stroke-linecap="round"/>
<polyline points="110.318,462.831 110.318,332.183 110.318,238.075 110.318,174.136 110.318,133.745 110.318,109.420 172.759,95.620 177.466,88.086 180.918,83.987 182.800,81.804 183.742,80.649 184.683,80.043 185.310,79.720 185.938,79.551 187.507,79.462 196.292,79.415 205.078,79.391 213.236,79.378 221.081,79.371 229.239,79.368 237.397,79.366 246.183,79.365 256.851,79.364 265.951,79.364 275.050,79.364 284.463,79.364 295.445,79.364 307.055,79.364 317.723,79.364 329.647,79.364 340.943,79.364 355.063,79.364 366.672,79.364 376.399,79.364 390.519,79.364 406.835,79.364 418.445,79.364 433.820,79.364 457.981,79.364 467.394,79.364 485.593,79.364 511.009,79.364 520.736,79.364 551.799,79.364 567.174,79.364 567.174,79.364 600.748,79.364 621.144,79.364 655.659,79.364 676.682,79.364 676.682,79.364" fill="none" stroke="#2ca02c" stroke-width="2.2" stroke-linejoin="round" stroke-linecap="round"/>
<text x="393.5" y="540" text-anchor="middle" font-family="Helvetica, Arial, sans-serif" font-size="14">V at row minimum r_V</text>
<text x="20" y="273.0" text-anchor="middle" transform="rotate(-90 20 273.0)" font-family="Helvetica, Arial, sans-serif" font-size="14">max rho</text>
<line x1="729.0" y1="80.0" x2="753.0" y2="80.0" stroke="#1f77b4" stroke-width="3"/>
<text x="761.0" y="84.0" font-family="Helvetica, Arial, sans-serif" font-size="13">Q0=1.0</text>
<line x1="729.0" y1="104.0" x2="753.0" y2="104.0" stroke="#d62728" stroke-width="3"/>
<text x="761.0" y="108.0" font-family="Helvetica, Arial, sans-serif" font-size="13">Q0=1.002</text>
<line x1="729.0" y1="128.0" x2="753.0" y2="128.0" stroke="#2ca02c" stroke-width="3"/>
<text x="761.0" y="132.0" font-family="Helvetica, Arial, sans-serif" font-size="13">Q0=1.0033218</text>
</svg>
